<?xml version="1.0" encoding="UTF-8"?>
<svg id="Camada_2" data-name="Camada 2" xmlns="http://www.w3.org/2000/svg" viewBox="0 0 400 400">
  <defs>
    <style>
      .cls-1, .cls-2 {
        fill: #fff;
      }

      .cls-3 {
        letter-spacing: 0em;
      }

      .cls-4 {
        letter-spacing: 0em;
      }

      .cls-5 {
        letter-spacing: -.03em;
      }

      .cls-2 {
        font-family: MyriadPro-Regular, 'Myriad Pro';
        font-size: 35.81px;
      }

      .cls-6 {
        fill: none;
      }

      .cls-7 {
        letter-spacing: -.01em;
      }

      .cls-8 {
        letter-spacing: 0em;
      }
    </style>
  </defs>
  <g id="Camada_1-2" data-name="Camada 1">
    <rect class="cls-6" width="400" height="400"/>
    <g>
      <g>
        <path class="cls-1" d="m182.18,286.14c1.13-.33,2.27-.66,3.46-1-4.7-.96-9.37-1.8-13.97-2.9-2.1-.5-4.14-1.38-6.1-2.3-7-3.27-10.61-8.49-10.38-16.56.32-11.14.26-22.3.02-33.45-.18-8.46,3.88-13.87,11.26-17.09,11.18-4.88,23.04-5.63,35.02-5.12,9.2.39,18.23,1.75,27.29,5.75,0-1.64.07-2.89-.01-4.13-.54-8.86,3.88-14.41,11.71-17.74,9.44-4.01,19.43-5.35,29.5-4.97,8.02.3,16.07,1.5,23.98,2.95,8.12,1.49,14.89,5.47,18.83,13.2v66.3c-6.22,13.2-18.52,14.42-31.08,15.68,1.54.51,2.85.95,4.16,1.39h-30.19c1.11-.34,2.22-.67,3.33-1.01-8.93-1.12-17.55-2.79-24.93-8.15-7.93,5.12-16.37,7.81-25.67,7.84,1.31.44,2.63.88,3.94,1.32h-30.19Zm46.95-60.95c-2.22-1.23-4.07-2.83-6.19-3.32-6.34-1.48-12.73-2.94-19.19-3.64-10.4-1.14-20.71,0-30.72,3.08-2.64.81-5.01,2.52-7.64,3.89,8.32,10.45,54.35,11.16,63.74,0Zm73.7-21.1c-2.9-1.42-5.39-3.2-8.14-3.85-5.71-1.35-11.52-2.44-17.36-3.03-10.41-1.05-20.73,0-30.75,3.08-2.65.81-5.03,2.52-7.66,3.88,8.1,10.42,54.09,11.22,63.9-.08Zm-63.19,55.32c-.82,10.26-1.32,9.5,7.65,13.05.7.28,1.46.45,2.2.62,10.86,2.43,21.86,3.29,32.87,1.7,5.56-.8,11.04-2.47,16.42-4.16,1.43-.45,3-2.31,3.38-3.81.57-2.24.15-4.74.15-7.44-21.07,7.47-41.88,7.96-62.66.04Zm.05-41.99c-1.53,8.52-.62,10.17,6.97,12.85.82.29,1.66.54,2.51.73,11.07,2.49,22.27,3.38,33.49,1.73,5.45-.8,10.82-2.44,16.08-4.12,1.44-.46,3.02-2.29,3.41-3.78.58-2.24.15-4.74.15-7.43-21.06,7.39-41.86,7.95-62.61.03Zm-73.66,20.94c-.51,10.33-1.61,9.43,8.19,13.23.6.23,1.25.36,1.89.5,10.86,2.44,21.84,3.26,32.85,1.67,5.46-.79,10.83-2.4,16.11-4.05,1.47-.46,3.17-2.22,3.55-3.69.59-2.31.16-4.89.16-7.63-21.09,7.41-41.79,7.95-62.75-.02Zm73.5-.01c-.9,9.56-.04,10.84,8.59,13.39.42.12.84.21,1.27.31,10.97,2.47,22.06,3.3,33.19,1.71,5.36-.77,10.63-2.33,15.82-3.94,1.52-.47,3.35-2.13,3.72-3.58.62-2.4.17-5.07.17-7.86-21.16,7.43-41.86,7.94-62.76-.03Zm-73.47,21.05c-.61,10.23-1.53,9.49,8.1,13.18.61.23,1.25.37,1.89.51,10.86,2.44,21.85,3.28,32.86,1.68,5.56-.81,11.02-2.52,16.4-4.19,1.38-.43,3-2.11,3.32-3.5.55-2.36.15-4.93.15-7.7-21.12,7.47-41.93,7.94-62.72.02Z"/>
        <path class="cls-1" d="m97.72,265.21h46.88v10.19h-57.4V34.08h3.31c38.5,0,77,.02,115.5-.05,2.49,0,4.29.7,6.05,2.48,20.28,20.4,40.59,40.75,61,61.02,2.2,2.19,3.07,4.4,3.05,7.48-.12,22.31-.06,44.63-.06,66.94v3.72h-10.34v-68.01h-63.05v-62.84h-104.92v220.38Zm158.75-168.26c-14.26-14.41-28.93-29.24-43.2-43.67v43.67h43.2Z"/>
        <path class="cls-1" d="m144.72,83.02v-11.93h10.55c0,3.09.11,6.23-.04,9.35-.1,1.98.66,2.84,2.51,3.49,12.38,4.33,16.8,9.96,18.42,23.38h-10.13c-.18-1.23-.27-2.62-.61-3.95-2.22-8.67-8.45-12.6-17.85-11.33-8.12,1.1-11.39,4.03-12.93,11.59-1.08,5.3.43,9.69,5.25,12.31,5.25,2.85,10.96,4.85,16.33,7.5,5.94,2.93,12.43,5.32,17.43,9.46,12.27,10.14,9.91,29.21-4.15,36.63-3.8,2.01-8.15,2.99-12.25,4.43-.5.18-1.04.25-1.91.45v11.79h-10.48v-11.17c-16.29-3.55-24.03-11.93-26.14-30.44.74-.07,1.47-.21,2.21-.21,2.6-.03,5.2-.01,7.87-.01.19,1.67.24,3.08.53,4.44,2.65,12.47,11.94,18.34,25.66,16.24,9.18-1.4,13.74-5.11,15.56-12.65,1.42-5.88.08-10.26-5.14-13.22-5.09-2.89-10.68-4.9-16-7.41-5.12-2.41-10.51-4.47-15.19-7.56-9.46-6.24-12.58-17.46-8.49-27.69,2.79-6.97,8.69-10.07,15.2-12.44,1.12-.41,2.31-.65,3.8-1.06Z"/>
      </g>
      <text class="cls-2" transform="translate(54.16 357.01)"><tspan class="cls-7" x="0" y="0">C</tspan><tspan x="20.38" y="0">o</tspan><tspan class="cls-8" x="40.04" y="0">n</tspan><tspan x="59.77" y="0">t</tspan><tspan class="cls-3" x="71.62" y="0">r</tspan><tspan x="82.98" y="0">ole </tspan><tspan class="cls-5" x="136.62" y="0">F</tspan><tspan x="153.13" y="0">inan</tspan><tspan class="cls-4" x="218.52" y="0">c</tspan><tspan x="234.35" y="0">ei</tspan><tspan class="cls-3" x="260.67" y="0">r</tspan><tspan x="272.02" y="0">o</tspan></text>
    </g>
  </g>
</svg>