<?xml version="1.0" encoding="UTF-8"?>
<svg id="Camada_2" data-name="Camada 2" xmlns="http://www.w3.org/2000/svg" viewBox="0 0 400 400">
  <defs>
    <style>
      .cls-1 {
        fill: #fff;
      }

      .cls-2 {
        fill: none;
      }
    </style>
  </defs>
  <g id="Camada_1-2" data-name="Camada 1">
    <rect class="cls-2" width="400" height="400"/>
    <g>
      <path class="cls-1" d="m190.7,265.75c.59-.17,1.18-.34,1.8-.52-2.45-.5-4.88-.94-7.28-1.51-1.1-.26-2.16-.72-3.18-1.2-3.65-1.7-5.53-4.43-5.41-8.64.17-5.81.14-11.63.01-17.45-.09-4.41,2.03-7.23,5.87-8.91,5.83-2.55,12.02-2.94,18.27-2.67,4.8.21,9.51.91,14.24,3,0-.86.03-1.51,0-2.15-.28-4.62,2.03-7.52,6.11-9.25,4.92-2.09,10.13-2.79,15.39-2.59,4.19.16,8.38.78,12.51,1.54,4.24.78,7.76,2.86,9.82,6.88v34.58c-3.24,6.89-9.66,7.52-16.21,8.18.8.27,1.49.5,2.17.72h-15.75c.58-.18,1.16-.35,1.74-.53-4.66-.59-9.15-1.45-13-4.25-4.14,2.67-8.54,4.07-13.39,4.09.68.23,1.37.46,2.05.69h-15.75Zm24.49-31.79c-1.16-.64-2.12-1.48-3.23-1.73-3.31-.77-6.64-1.53-10.01-1.9-5.42-.59-10.8,0-16.02,1.6-1.38.42-2.61,1.31-3.99,2.03,4.34,5.45,28.35,5.82,33.25,0Zm38.44-11.01c-1.51-.74-2.81-1.67-4.25-2.01-2.98-.71-6.01-1.27-9.05-1.58-5.43-.55-10.81,0-16.04,1.61-1.38.42-2.62,1.31-3.99,2.02,4.22,5.43,28.21,5.85,33.33-.04Zm-32.96,28.86c-.43,5.35-.69,4.95,3.99,6.81.37.15.76.24,1.15.32,5.66,1.27,11.4,1.72,17.14.89,2.9-.42,5.76-1.29,8.56-2.17.75-.24,1.56-1.2,1.76-1.98.3-1.17.08-2.47.08-3.88-10.99,3.9-21.84,4.15-32.69.02Zm.03-21.9c-.8,4.45-.32,5.3,3.64,6.7.43.15.87.28,1.31.38,5.77,1.3,11.61,1.76,17.47.9,2.84-.42,5.64-1.27,8.39-2.15.75-.24,1.58-1.19,1.78-1.97.3-1.17.08-2.47.08-3.88-10.99,3.86-21.84,4.14-32.66.01Zm-38.42,10.92c-.27,5.39-.84,4.92,4.27,6.9.32.12.65.19.99.26,5.66,1.27,11.39,1.7,17.14.87,2.85-.41,5.65-1.25,8.4-2.12.77-.24,1.65-1.16,1.85-1.92.31-1.21.08-2.55.08-3.98-11,3.86-21.8,4.15-32.73-.01Zm38.34,0c-.47,4.99-.02,5.66,4.48,6.98.22.06.44.11.66.16,5.72,1.29,11.51,1.72,17.31.89,2.79-.4,5.54-1.22,8.25-2.05.79-.25,1.75-1.11,1.94-1.87.32-1.25.09-2.65.09-4.1-11.04,3.88-21.84,4.14-32.73-.02Zm-38.32,10.98c-.32,5.34-.8,4.95,4.22,6.87.32.12.65.19.99.27,5.66,1.27,11.4,1.71,17.14.88,2.9-.42,5.75-1.31,8.56-2.19.72-.22,1.56-1.1,1.73-1.82.28-1.23.08-2.57.08-4.02-11.02,3.89-21.87,4.14-32.71,0Z"/>
      <path class="cls-1" d="m146.65,254.83h24.45v5.31h-29.94v-125.87h1.72c20.08,0,40.16.01,60.25-.02,1.3,0,2.24.37,3.16,1.29,10.58,10.64,21.17,21.25,31.82,31.83,1.15,1.14,1.6,2.29,1.59,3.9-.06,11.64-.03,23.28-.03,34.92v1.94h-5.39v-35.47h-32.89v-32.77h-54.73v114.95Zm82.8-87.76c-7.44-7.52-15.09-15.25-22.53-22.78v22.78h22.53Z"/>
      <path class="cls-1" d="m171.16,159.8v-6.22h5.5c0,1.61.06,3.25-.02,4.88-.05,1.03.34,1.48,1.31,1.82,6.46,2.26,8.76,5.19,9.61,12.19h-5.28c-.1-.64-.14-1.37-.32-2.06-1.16-4.52-4.41-6.57-9.31-5.91-4.24.58-5.94,2.1-6.75,6.05-.57,2.77.23,5.05,2.74,6.42,2.74,1.49,5.72,2.53,8.52,3.91,3.1,1.53,6.48,2.78,9.09,4.93,6.4,5.29,5.17,15.24-2.16,19.11-1.98,1.05-4.25,1.56-6.39,2.31-.26.09-.54.13-.99.23v6.15h-5.47v-5.83c-8.5-1.85-12.54-6.22-13.63-15.88.38-.04.77-.11,1.15-.11,1.36-.01,2.71,0,4.11,0,.1.87.13,1.61.28,2.32,1.38,6.51,6.23,9.56,13.38,8.47,4.79-.73,7.16-2.67,8.11-6.6.74-3.07.04-5.35-2.68-6.9-2.66-1.51-5.57-2.56-8.35-3.86-2.67-1.26-5.48-2.33-7.92-3.94-4.93-3.25-6.56-9.11-4.43-14.44,1.46-3.64,4.53-5.25,7.93-6.49.59-.21,1.2-.34,1.98-.55Z"/>
    </g>
  </g>
</svg>