<?xml version="1.0" encoding="UTF-8"?>
<svg id="Camada_2" data-name="Camada 2" xmlns="http://www.w3.org/2000/svg" viewBox="0 0 400 400">
  <defs>
    <style>
      .cls-1 {
        fill: #fff;
      }

      .cls-2 {
        fill: none;
      }
    </style>
  </defs>
  <g id="Camada_1-2" data-name="Camada 1">
    <rect class="cls-2" width="400" height="400"/>
    <g>
      <path class="cls-1" d="m187.61,287.63c.79-.23,1.57-.46,2.4-.7-3.27-.67-6.51-1.25-9.71-2.02-1.46-.35-2.88-.96-4.24-1.6-4.87-2.27-7.38-5.9-7.21-11.51.22-7.75.18-15.5.02-23.25-.13-5.88,2.7-9.64,7.83-11.88,7.78-3.39,16.02-3.92,24.35-3.56,6.39.27,12.68,1.21,18.97,4,0-1.14.05-2.01,0-2.87-.37-6.16,2.7-10.02,8.14-12.33,6.56-2.79,13.5-3.72,20.51-3.45,5.58.21,11.17,1.04,16.67,2.05,5.64,1.03,10.35,3.81,13.09,9.17v46.09c-4.32,9.18-12.87,10.03-21.6,10.9,1.07.36,1.98.66,2.9.96h-20.99c.77-.23,1.55-.47,2.32-.7-6.21-.78-12.2-1.94-17.33-5.67-5.51,3.56-11.38,5.43-17.85,5.45.91.31,1.83.61,2.74.92h-20.99Zm32.64-42.37c-1.54-.85-2.83-1.97-4.3-2.31-4.41-1.03-8.85-2.04-13.34-2.53-7.23-.79-14.4,0-21.36,2.14-1.84.56-3.48,1.75-5.31,2.7,5.78,7.27,37.78,7.76,44.31,0Zm51.23-14.67c-2.02-.98-3.75-2.23-5.66-2.68-3.97-.94-8.01-1.7-12.07-2.11-7.24-.73-14.41,0-21.37,2.14-1.84.57-3.5,1.75-5.32,2.7,5.63,7.24,37.6,7.8,44.42-.05Zm-43.93,38.46c-.57,7.13-.92,6.6,5.32,9.07.49.19,1.01.31,1.53.43,7.55,1.69,15.19,2.29,22.85,1.18,3.87-.56,7.67-1.71,11.41-2.89.99-.31,2.08-1.6,2.35-2.65.4-1.56.1-3.3.1-5.17-14.65,5.19-29.12,5.53-43.56.03Zm.03-29.19c-1.06,5.92-.43,7.07,4.85,8.93.57.2,1.15.38,1.74.51,7.69,1.73,15.48,2.35,23.28,1.2,3.79-.56,7.52-1.7,11.18-2.87,1-.32,2.1-1.59,2.37-2.63.4-1.56.1-3.29.1-5.17-14.64,5.14-29.1,5.52-43.53.02Zm-51.21,14.56c-.35,7.18-1.12,6.56,5.69,9.19.42.16.87.25,1.31.35,7.55,1.7,15.19,2.27,22.84,1.16,3.79-.55,7.53-1.67,11.2-2.82,1.02-.32,2.2-1.54,2.47-2.57.41-1.61.11-3.4.11-5.31-14.66,5.15-29.05,5.53-43.63-.02Zm51.1,0c-.62,6.65-.03,7.54,5.97,9.31.29.09.59.15.88.21,7.62,1.72,15.34,2.3,23.07,1.19,3.72-.53,7.39-1.62,11-2.74,1.05-.33,2.33-1.48,2.59-2.49.43-1.67.12-3.53.12-5.46-14.71,5.17-29.1,5.52-43.63-.02Zm-51.07,14.63c-.43,7.11-1.06,6.6,5.63,9.16.42.16.87.26,1.31.36,7.55,1.7,15.19,2.28,22.84,1.17,3.87-.56,7.66-1.75,11.4-2.92.96-.3,2.08-1.47,2.3-2.43.38-1.64.1-3.43.1-5.35-14.68,5.19-29.15,5.52-43.6.01Z"/>
      <path class="cls-1" d="m128.9,273.08h32.59v7.08h-39.91V112.4h2.3c26.77,0,53.53.01,80.3-.03,1.73,0,2.98.49,4.21,1.72,14.09,14.18,28.22,28.33,42.4,42.42,1.53,1.52,2.13,3.06,2.12,5.2-.08,15.51-.04,31.02-.04,46.54v2.58h-7.19v-47.28h-43.83v-43.68h-72.94v153.2Zm110.36-116.97c-9.91-10.02-20.11-20.33-30.03-30.36v30.36h30.03Z"/>
      <path class="cls-1" d="m161.57,146.42v-8.29h7.33c0,2.15.08,4.33-.03,6.5-.07,1.38.46,1.97,1.75,2.42,8.61,3.01,11.68,6.92,12.8,16.25h-7.04c-.13-.85-.19-1.82-.42-2.74-1.54-6.03-5.88-8.76-12.41-7.87-5.64.77-7.92,2.8-8.99,8.06-.75,3.69.3,6.74,3.65,8.56,3.65,1.98,7.62,3.37,11.35,5.22,4.13,2.04,8.64,3.7,12.11,6.57,8.53,7.05,6.89,20.31-2.88,25.47-2.64,1.4-5.66,2.08-8.52,3.08-.35.12-.72.17-1.33.31v8.2h-7.29v-7.77c-11.32-2.47-16.71-8.3-18.17-21.16.51-.05,1.02-.14,1.53-.15,1.81-.02,3.62,0,5.47,0,.14,1.16.17,2.14.37,3.09,1.85,8.67,8.3,12.75,17.84,11.29,6.38-.98,9.55-3.55,10.81-8.79.99-4.09.06-7.13-3.58-9.19-3.54-2.01-7.42-3.41-11.12-5.15-3.56-1.68-7.3-3.1-10.56-5.25-6.58-4.34-8.75-12.14-5.9-19.25,1.94-4.85,6.04-7,10.57-8.65.78-.28,1.6-.45,2.64-.73Z"/>
    </g>
  </g>
</svg>